<svg width="186" height="106" viewBox="0 0 186 106" fill="none" xmlns="http://www.w3.org/2000/svg">
<path d="M84.2085 3.06794C80.4544 4.75993 65.0679 11.5279 50.1043 18.0844C2.09409 39.1285 0.4021 39.9216 0.4021 42.3539C0.4021 42.8826 0.930847 43.8872 1.61822 44.5217C2.25271 45.2091 10.6598 49.2804 20.3359 53.6162L37.8903 61.5474L37.9431 72.4924C37.9431 78.573 38.1546 83.4904 38.419 83.4904C38.6834 83.4904 40.1639 82.9088 41.6972 82.2214C43.2835 81.534 46.7203 80.4236 49.3112 79.7363C55.6033 78.0972 67.6587 77.9385 74.1623 79.4719C78.7095 80.4765 86.0063 83.3318 89.6017 85.3939C90.8179 86.0812 92.1926 86.6629 92.6685 86.6629C93.0915 86.6629 96.1582 85.3939 99.4364 83.8076C106.892 80.1593 112.496 78.7317 120.692 78.3615C128.147 78.0443 134.545 78.9431 141.578 81.4283C144.063 82.2743 146.495 83.1203 147.024 83.2789C147.87 83.5961 147.923 82.8559 147.923 72.5453V61.4945L154.955 58.2163C158.762 56.4185 162.146 54.938 162.357 54.938C162.569 54.938 162.727 60.2255 162.622 66.6762L162.463 78.4673L160.507 81.2168C157.969 84.8651 157.44 87.7204 157.44 97.2378V105.169H166.217H174.994L174.783 96.0217C174.571 88.302 174.36 86.5042 173.355 83.9662C172.721 82.3271 171.769 80.5823 171.187 80.0535C170.183 79.1546 170.13 78.3615 170.13 65.2486V51.3954L176.528 48.5402C180.07 46.9539 183.507 45.1562 184.195 44.5217C185.728 43.147 185.834 41.1377 184.512 39.9745C183.666 39.1814 177.268 36.2204 165.371 31.1444C163.468 30.3513 154.796 26.5443 146.072 22.6845C137.348 18.8775 126.191 13.9601 121.221 11.8451C116.303 9.73016 108.214 6.18755 103.243 3.96681C98.1146 1.64032 93.6202 -0.0516663 92.6685 0.00120544C91.8225 0.00120544 88.0155 1.37595 84.2085 3.06794Z" fill="white"/>
</svg>
