<svg width="200" height="263" viewBox="0 0 200 263" fill="none" xmlns="http://www.w3.org/2000/svg">
<path d="M91.2085 3.06788C87.4544 4.75987 72.0679 11.5278 57.1043 18.0843C9.09409 39.1284 7.4021 39.9216 7.4021 42.3538C7.4021 42.8825 7.93085 43.8872 8.61822 44.5217C9.25271 45.209 17.6598 49.2804 27.3359 53.6161L44.8903 61.5473L44.9431 72.4924C44.9431 78.573 45.1546 83.4903 45.419 83.4903C45.6834 83.4903 47.1639 82.9087 48.6972 82.2213C50.2835 81.5339 53.7203 80.4236 56.3112 79.7362C62.6033 78.0971 74.6587 77.9385 81.1623 79.4718C85.7095 80.4765 93.0063 83.3317 96.6017 85.3938C97.8179 86.0812 99.1926 86.6628 99.6685 86.6628C100.091 86.6628 103.158 85.3938 106.436 83.8076C113.892 80.1592 119.496 78.7316 127.692 78.3615C135.147 78.0442 141.545 78.9431 148.578 81.4282C151.063 82.2742 153.495 83.1202 154.024 83.2788C154.87 83.5961 154.923 82.8558 154.923 72.5452V61.4944L161.955 58.2162C165.762 56.4185 169.146 54.938 169.357 54.938C169.569 54.938 169.727 60.2254 169.622 66.6762L169.463 78.4672L167.507 81.2167C164.969 84.8651 164.44 87.7203 164.44 97.2377V105.169H173.217H181.994L181.783 96.0216C181.571 88.3019 181.36 86.5042 180.355 83.9662C179.721 82.3271 178.769 80.5822 178.187 80.0535C177.183 79.1546 177.13 78.3615 177.13 65.2485V51.3954L183.528 48.5401C187.07 46.9539 190.507 45.1562 191.195 44.5217C192.728 43.1469 192.834 41.1377 191.512 39.9744C190.666 39.1813 184.268 36.2203 172.371 31.1443C170.468 30.3512 161.796 26.5443 153.072 22.6844C144.348 18.8774 133.191 13.9601 128.221 11.8451C123.303 9.73009 115.214 6.18748 110.243 3.96675C105.115 1.64026 100.62 -0.0517273 99.6685 0.00114441C98.8225 0.00114441 95.0155 1.37589 91.2085 3.06788Z" fill="white"/>
<path d="M27.4396 94.0652C25.2189 94.2767 21.5705 94.8583 19.4027 95.3342C12.4761 96.8675 13.2163 88.6191 13.2163 164.071V229.16H30.7707C46.686 229.213 48.9596 229.319 54.6701 230.376C70.6911 233.39 84.3328 238.942 94.5905 246.662C100.354 250.944 99.7722 250.892 103.896 247.613C113.467 239.999 126.58 234.289 141.438 231.275C151.642 229.213 158.04 228.737 172.792 229.054L186.117 229.319V168.83V108.341L173.85 108.236L161.53 108.077L161.371 100.727L161.213 93.3778L155.079 93.7479C135.886 94.9112 118.384 101.203 104.214 111.99C101.887 113.787 99.8251 115.215 99.6665 115.215C99.5079 115.215 97.9216 113.999 96.1239 112.571C78.9925 98.7181 52.6609 91.6329 27.4396 94.0652ZM50.5459 147.997C52.608 151.328 57.4725 159.207 61.2794 165.446L68.206 176.761V159.207V141.652H73.2291H78.2522V167.72V180.753V193.787L74.974 193.681C73.1234 193.575 70.5854 193.522 69.2635 193.47H66.8841L56.5736 176.232L46.263 159.048L46.1044 176.285L45.9986 193.47H41.2399H36.4812V167.561V141.6L41.61 141.758L46.7389 141.917L50.5459 147.997ZM120.023 146.94V151.699H109.184H98.3446V157.25V162.802H107.862H117.38V167.561V172.32H107.862H98.3446V178.242V184.217L109.448 184.058L120.552 183.899V188.975V193.998H104.425H88.2984V168.09V142.181H104.161H120.023V146.94ZM154.656 142.974C161.107 144.666 164.491 148.368 164.861 154.184C165.02 156.51 164.808 158.255 164.227 159.894C163.328 162.168 159.785 165.975 158.463 165.975C158.146 166.028 158.569 166.398 159.415 166.874C164.015 169.253 165.971 172.796 166.024 178.718C166.024 183.741 164.279 187.548 160.843 190.139C156.824 193.205 154.022 193.681 140.644 193.681L128.748 193.734L128.589 167.931L128.483 142.181H140.01C148.681 142.181 152.33 142.393 154.656 142.974Z" fill="white"/>
<path d="M138.796 156.986V162.802H143.978C151.644 162.802 154.394 161.216 154.394 156.828C154.394 152.386 152.279 151.17 144.242 151.17H138.796V156.986Z" fill="white"/>
<path d="M138.796 177.819V184.481H144.348C149.106 184.481 150.323 184.322 152.279 183.265C155.346 181.784 156.403 179.141 155.346 175.862C154.182 172.214 152.649 171.58 145.247 171.368L138.796 171.157V177.819Z" fill="white"/>
<path d="M6.87371 106.068C3.85985 106.597 1.58624 107.337 0.793121 108.13C0.105749 108.87 0 116.326 0 177.026V245.128L1.11037 246.133C2.16786 247.085 3.38398 247.138 22.6304 247.138C39.0215 247.19 44.309 247.349 49.1735 248.089C66.1463 250.574 74.5005 253.007 86.9789 258.982L95.4389 263H100.198L104.956 262.947L111.566 259.457C129.384 249.993 149.794 246.397 182.365 247.032L197.381 247.296L198.597 246.027L199.866 244.811V177.502C199.866 124.627 199.708 109.928 199.179 108.87C198.703 107.866 197.751 107.337 195.108 106.649C193.204 106.174 191.036 105.751 190.243 105.751L188.763 105.698V168.196C188.763 206.741 188.551 231.064 188.234 231.54C187.811 232.227 185.326 232.333 171.473 232.386C153.654 232.386 149.054 232.861 137.421 235.77C124.308 239.048 114.791 243.489 105.009 250.839C100.303 254.381 99.1401 254.487 95.7561 251.685C87.5605 244.811 71.8039 237.62 59.1668 235.029C47.5344 232.65 44.5205 232.386 28.1293 232.333C14.4877 232.333 12.0554 232.227 11.6324 231.54C11.3152 231.064 11.1037 206.741 11.1037 168.196V105.698L9.67607 105.751C8.83008 105.803 7.61396 105.962 6.87371 106.068Z" fill="white"/>
</svg>
