<svg width="200" height="158" viewBox="0 0 200 158" fill="none" xmlns="http://www.w3.org/2000/svg">
<path d="M6.87371 1.06786C3.85985 1.5966 1.58624 2.33685 0.793121 3.12997C0.105749 3.87022 0 11.3255 0 72.0257V140.128L1.11037 141.133C2.16786 142.085 3.38398 142.138 22.6304 142.138C39.0215 142.19 44.309 142.349 49.1735 143.089C66.1463 145.574 74.5005 148.007 86.9789 153.982L95.4389 158H100.198L104.956 157.947L111.566 154.457C129.384 144.993 149.794 141.397 182.365 142.032L197.381 142.296L198.597 141.027L199.866 139.811V72.5016C199.866 19.6269 199.708 4.92772 199.179 3.87022C198.703 2.8656 197.751 2.33685 195.108 1.64948C193.204 1.17361 191.036 0.75061 190.243 0.75061L188.763 0.697739V63.1956C188.763 101.741 188.551 126.064 188.234 126.54C187.811 127.227 185.326 127.333 171.473 127.386C153.654 127.386 149.054 127.861 137.421 130.77C124.308 134.048 114.791 138.489 105.009 145.839C100.303 149.381 99.1401 149.487 95.7561 146.685C87.5605 139.811 71.8039 132.62 59.1668 130.029C47.5344 127.65 44.5205 127.386 28.1293 127.333C14.4877 127.333 12.0554 127.227 11.6324 126.54C11.3152 126.064 11.1037 101.741 11.1037 63.1956V0.697739L9.67607 0.75061C8.83008 0.803482 7.61396 0.962112 6.87371 1.06786Z" fill="white"/>
</svg>
