<svg width="243" height="279" viewBox="0 0 243 279" fill="none" xmlns="http://www.w3.org/2000/svg">
<rect width="243" height="279" fill="#00000000"/>
<path d="M25.8737 113.068C22.8599 113.597 20.5862 114.337 19.7931 115.13C19.1057 115.87 19 123.326 19 184.026V252.128L20.1104 253.133C21.1679 254.085 22.384 254.138 41.6304 254.138C58.0215 254.19 63.309 254.349 68.1735 255.089C85.1463 257.574 93.5005 260.007 105.979 265.982L114.439 270H119.198L123.956 269.947L130.566 266.457C148.384 256.993 168.794 253.397 201.365 254.032L216.381 254.296L217.597 253.027L218.866 251.811V184.502C218.866 131.627 218.708 116.928 218.179 115.87C217.703 114.866 216.751 114.337 214.108 113.65C212.204 113.174 210.036 112.751 209.243 112.751L207.763 112.698V175.196C207.763 213.741 207.551 238.064 207.234 238.54C206.811 239.227 204.326 239.333 190.473 239.386C172.654 239.386 168.054 239.861 156.421 242.77C143.308 246.048 133.791 250.489 124.009 257.839C119.303 261.381 118.14 261.487 114.756 258.685C106.561 251.811 90.8039 244.62 78.1668 242.029C66.5344 239.65 63.5205 239.386 47.1293 239.333C33.4877 239.333 31.0554 239.227 30.6324 238.54C30.3152 238.064 30.1037 213.741 30.1037 175.196V112.698L28.6761 112.751C27.8301 112.804 26.614 112.962 25.8737 113.068Z" fill="white"/>
</svg>
