<svg width="243" height="279" viewBox="0 0 243 279" fill="none" xmlns="http://www.w3.org/2000/svg">
<rect width="243" height="279" fill="#00000000"/>
<path d="M46.4397 101.065C44.219 101.277 40.5706 101.858 38.4027 102.334C31.4761 103.867 32.2164 95.619 32.2164 171.071V236.16H49.7708C65.6861 236.213 67.9597 236.319 73.6702 237.376C89.6912 240.39 103.333 245.942 113.591 253.662C119.354 257.944 118.772 257.891 122.897 254.613C132.467 246.999 145.58 241.289 160.438 238.275C170.642 236.213 177.04 235.737 191.792 236.054L205.117 236.319V175.83V115.341L192.85 115.236L180.53 115.077L180.371 107.727L180.213 100.378L174.079 100.748C154.886 101.911 137.384 108.203 123.214 118.99C120.887 120.787 118.825 122.215 118.667 122.215C118.508 122.215 116.922 120.999 115.124 119.571C97.9925 105.718 71.6609 98.6329 46.4397 101.065ZM69.5459 154.997C71.6081 158.328 76.4725 166.207 80.2795 172.446L87.2061 183.761V166.207V148.652H92.2292H97.2523V174.72V187.753V200.787L93.9741 200.681C92.1234 200.575 89.5855 200.522 88.2636 200.47H85.8842L75.5737 183.232L65.2631 166.048L65.1045 183.285L64.9987 200.47H60.24H55.4813V174.561V148.599L60.6101 148.758L65.739 148.917L69.5459 154.997ZM139.023 153.94V158.699H128.184H117.345V164.25V169.802H126.862H136.38V174.561V179.32H126.862H117.345V185.242V191.216L128.448 191.058L139.552 190.899V195.975V200.998H123.425H107.298V175.09V149.181H123.161H139.023V153.94ZM173.656 149.974C180.107 151.666 183.491 155.367 183.861 161.184C184.02 163.51 183.808 165.255 183.227 166.894C182.328 169.168 178.785 172.975 177.463 172.975C177.146 173.028 177.569 173.398 178.415 173.874C183.015 176.253 184.971 179.796 185.024 185.718C185.024 190.741 183.279 194.548 179.843 197.138C175.824 200.205 173.022 200.681 159.644 200.681L147.748 200.734L147.589 174.931L147.483 149.181H159.01C167.681 149.181 171.33 149.393 173.656 149.974Z" fill="white"/>
<path d="M157.796 163.986V169.802H162.978C170.644 169.802 173.394 168.216 173.394 163.828C173.394 159.386 171.279 158.17 163.242 158.17H157.796V163.986Z" fill="white"/>
<path d="M157.796 184.819V191.481H163.348C168.106 191.481 169.323 191.322 171.279 190.265C174.346 188.784 175.403 186.141 174.346 182.862C173.182 179.214 171.649 178.58 164.247 178.368L157.796 178.157V184.819Z" fill="white"/>
</svg>
