<svg width="174" height="157" viewBox="0 0 174 157" fill="none" xmlns="http://www.w3.org/2000/svg">
<path d="M14.4396 1.06511C12.2189 1.27661 8.57052 1.85823 6.40266 2.33411C-0.523931 3.86748 0.216315 -4.38098 0.216315 71.0712V136.16H17.7707C33.686 136.213 35.9596 136.319 41.6701 137.376C57.6911 140.39 71.3328 145.942 81.5905 153.662C87.3538 157.944 86.7722 157.891 90.8965 154.613C100.467 146.999 113.58 141.289 128.438 138.275C138.642 136.213 145.04 135.737 159.792 136.054L173.117 136.319V75.8299V15.3413L160.85 15.2355L148.53 15.0769L148.371 7.72733L148.213 0.377747L142.079 0.747864C122.886 1.9111 105.384 8.2032 91.2137 18.9896C88.8872 20.7874 86.8251 22.215 86.6665 22.215C86.5079 22.215 84.9216 20.9989 83.1239 19.5713C65.9925 5.71808 39.6609 -1.36713 14.4396 1.06511ZM37.5459 54.9973C39.608 58.3284 44.4725 66.2068 48.2794 72.446L55.206 83.7612V66.2067V48.6524H60.2291H65.2522V74.7196V87.7532V100.787L61.974 100.681C60.1234 100.575 57.5854 100.522 56.2635 100.47H53.8841L43.5736 83.2324L33.263 66.0481L33.1044 83.2853L32.9986 100.47H28.2399H23.4812V74.561V48.5995L28.61 48.7581L33.7389 48.9167L37.5459 54.9973ZM107.023 53.9398V58.6985H96.1839H85.3446V64.2504V69.8022H94.8621H104.38V74.561V79.3197H94.8621H85.3446V85.2416V91.2165L96.4483 91.0579L107.552 90.8992V95.9752V100.998H91.4252H75.2984V75.0897V49.1811H91.1608H107.023V53.9398ZM141.656 49.9742C148.107 51.6662 151.491 55.3674 151.861 61.1837C152.02 63.5101 151.808 65.255 151.227 66.8941C150.328 69.1677 146.785 72.9747 145.463 72.9747C145.146 73.0276 145.569 73.3977 146.415 73.8736C151.015 76.2529 152.971 79.7956 153.024 85.7175C153.024 90.7406 151.279 94.5476 147.843 97.1385C143.824 100.205 141.022 100.681 127.644 100.681L115.748 100.734L115.589 74.9311L115.483 49.1811H127.01C135.681 49.1811 139.33 49.3926 141.656 49.9742Z" fill="white"/>
</svg>
