<svg width="243" height="279" viewBox="0 0 243 279" fill="none" xmlns="http://www.w3.org/2000/svg">
<rect width="243" height="279" fill="#00000000"/>
<path d="M110.209 10.068C106.455 11.7599 91.068 18.5279 76.1044 25.0844C28.0942 46.1285 26.4022 46.9216 26.4022 49.3539C26.4022 49.8826 26.931 50.8872 27.6183 51.5217C28.2528 52.2091 36.6599 56.2805 46.336 60.6162L63.8904 68.5474L63.9433 79.4925C63.9433 85.573 64.1547 90.4904 64.4191 90.4904C64.6835 90.4904 66.164 89.9088 67.6974 89.2214C69.2836 88.534 72.7205 87.4237 75.3113 86.7363C81.6034 85.0972 93.6588 84.9385 100.162 86.4719C104.71 87.4765 112.006 90.3318 115.602 92.3939C116.818 93.0813 118.193 93.6629 118.669 93.6629C119.092 93.6629 122.158 92.3939 125.437 90.8076C132.892 87.1593 138.497 85.7317 146.692 85.3615C154.148 85.0443 160.545 85.9432 167.578 88.4283C170.063 89.2743 172.495 90.1203 173.024 90.2789C173.87 90.5961 173.923 89.8559 173.923 79.5453V68.4945L180.955 65.2163C184.762 63.4185 188.146 61.938 188.357 61.938C188.569 61.938 188.728 67.2255 188.622 73.6762L188.463 85.4673L186.507 88.2168C183.969 91.8651 183.44 94.7204 183.44 104.238V112.169H192.217H200.995L200.783 103.022C200.572 95.302 200.36 93.5042 199.355 90.9663C198.721 89.3271 197.769 87.5823 197.188 87.0535C196.183 86.1547 196.13 85.3615 196.13 72.2486V58.3954L202.528 55.5402C206.07 53.954 209.507 52.1562 210.195 51.5217C211.728 50.147 211.834 48.1377 210.512 46.9745C209.666 46.1814 203.268 43.2204 191.371 38.1444C189.468 37.3513 180.796 33.5443 172.072 29.6845C163.348 25.8775 152.191 20.9601 147.221 18.8452C142.304 16.7302 134.214 13.1876 129.244 10.9668C124.115 8.64034 119.62 6.94835 118.669 7.00122C117.823 7.00122 114.016 8.37597 110.209 10.068Z" fill="white"/>
</svg>
