<svg width="97" height="105" viewBox="0 0 97 105" fill="none" xmlns="http://www.w3.org/2000/svg">
<path d="M5.61723 15H1.85019V3.36364H5.73655C6.8767 3.36364 7.85587 3.59659 8.67405 4.0625C9.49223 4.52462 10.1191 5.18939 10.5547 6.05682C10.9941 6.92045 11.2138 7.95644 11.2138 9.16477C11.2138 10.3769 10.9922 11.4186 10.5491 12.2898C10.1097 13.161 9.47329 13.8314 8.63996 14.3011C7.80663 14.767 6.79905 15 5.61723 15ZM3.60587 13.4659H5.52064C6.407 13.4659 7.14375 13.2992 7.73087 12.9659C8.31799 12.6288 8.75738 12.142 9.04905 11.5057C9.34072 10.8655 9.48655 10.0852 9.48655 9.16477C9.48655 8.25189 9.34072 7.47727 9.04905 6.84091C8.76117 6.20455 8.33125 5.72159 7.75928 5.39205C7.18731 5.0625 6.47708 4.89773 5.6286 4.89773H3.60587V13.4659ZM17.0221 15.1761C16.1622 15.1761 15.4217 14.9924 14.8005 14.625C14.183 14.2538 13.7058 13.733 13.3687 13.0625C13.0353 12.3883 12.8687 11.5985 12.8687 10.6932C12.8687 9.79924 13.0353 9.01136 13.3687 8.32955C13.7058 7.64773 14.1755 7.11553 14.7777 6.73295C15.3838 6.35038 16.0921 6.15909 16.9027 6.15909C17.3952 6.15909 17.8724 6.24053 18.3346 6.40341C18.7967 6.56629 19.2115 6.82197 19.5789 7.17045C19.9463 7.51894 20.2361 7.97159 20.4482 8.52841C20.6603 9.08144 20.7664 9.75379 20.7664 10.5455V11.1477H13.8289V9.875H19.1016C19.1016 9.42803 19.0107 9.0322 18.8289 8.6875C18.6471 8.33902 18.3914 8.06439 18.0618 7.86364C17.7361 7.66288 17.3535 7.5625 16.9141 7.5625C16.4368 7.5625 16.0202 7.67992 15.6641 7.91477C15.3118 8.14583 15.0391 8.44886 14.8459 8.82386C14.6565 9.19508 14.5618 9.59848 14.5618 10.0341V11.0284C14.5618 11.6117 14.6641 12.108 14.8687 12.517C15.077 12.9261 15.3668 13.2386 15.738 13.4545C16.1092 13.6667 16.5429 13.7727 17.0391 13.7727C17.3611 13.7727 17.6546 13.7273 17.9198 13.6364C18.1849 13.5417 18.4141 13.4015 18.6073 13.2159C18.8005 13.0303 18.9482 12.8011 19.0505 12.5284L20.6584 12.8182C20.5296 13.2917 20.2986 13.7064 19.9652 14.0625C19.6357 14.4148 19.2209 14.6894 18.7209 14.8864C18.2247 15.0795 17.6584 15.1761 17.0221 15.1761ZM29.1911 8.40341L27.6513 8.67614C27.5869 8.47917 27.4847 8.29167 27.3445 8.11364C27.2081 7.93561 27.0225 7.78977 26.7877 7.67614C26.5528 7.5625 26.2593 7.50568 25.907 7.50568C25.4259 7.50568 25.0244 7.61364 24.7025 7.82955C24.3805 8.04167 24.2195 8.31629 24.2195 8.65341C24.2195 8.94508 24.3275 9.17992 24.5434 9.35795C24.7593 9.53598 25.1078 9.68182 25.5888 9.79545L26.9752 10.1136C27.7782 10.2992 28.3767 10.5852 28.7706 10.9716C29.1646 11.358 29.3616 11.8598 29.3616 12.4773C29.3616 13 29.21 13.4659 28.907 13.875C28.6078 14.2803 28.1892 14.5985 27.6513 14.8295C27.1172 15.0606 26.4979 15.1761 25.7934 15.1761C24.8161 15.1761 24.0187 14.9678 23.4013 14.5511C22.7839 14.1307 22.4051 13.5341 22.265 12.7614L23.907 12.5114C24.0093 12.9394 24.2195 13.2633 24.5377 13.483C24.8559 13.6989 25.2706 13.8068 25.782 13.8068C26.3388 13.8068 26.7839 13.6913 27.1172 13.4602C27.4506 13.2254 27.6172 12.9394 27.6172 12.6023C27.6172 12.3295 27.515 12.1004 27.3104 11.9148C27.1097 11.7292 26.8009 11.589 26.3843 11.4943L24.907 11.1705C24.0926 10.9848 23.4903 10.6894 23.1002 10.2841C22.7138 9.87879 22.5206 9.36553 22.5206 8.74432C22.5206 8.22917 22.6646 7.77841 22.9525 7.39205C23.2403 7.00568 23.6381 6.70455 24.1456 6.48864C24.6532 6.26894 25.2347 6.15909 25.89 6.15909C26.8331 6.15909 27.5756 6.36364 28.1172 6.77273C28.6589 7.17803 29.0169 7.72159 29.1911 8.40341ZM31.2294 15V6.27273H32.9283V15H31.2294ZM32.0874 4.92614C31.7919 4.92614 31.5382 4.82765 31.326 4.63068C31.1177 4.42992 31.0135 4.19129 31.0135 3.91477C31.0135 3.63447 31.1177 3.39583 31.326 3.19886C31.5382 2.99811 31.7919 2.89773 32.0874 2.89773C32.3829 2.89773 32.6348 2.99811 32.8431 3.19886C33.0552 3.39583 33.1613 3.63447 33.1613 3.91477C33.1613 4.19129 33.0552 4.42992 32.8431 4.63068C32.6348 4.82765 32.3829 4.92614 32.0874 4.92614ZM38.8729 18.4545C38.1797 18.4545 37.5831 18.3636 37.0831 18.1818C36.5869 18 36.1816 17.7595 35.8672 17.4602C35.5528 17.161 35.318 16.8333 35.1627 16.4773L36.6229 15.875C36.7252 16.0417 36.8616 16.2178 37.032 16.4034C37.2062 16.5928 37.4411 16.7538 37.7366 16.8864C38.0358 17.0189 38.4203 17.0852 38.89 17.0852C39.5339 17.0852 40.0661 16.928 40.4866 16.6136C40.907 16.303 41.1172 15.8068 41.1172 15.125V13.4091H41.0093C40.907 13.5947 40.7593 13.8011 40.5661 14.0284C40.3767 14.2557 40.1153 14.4527 39.782 14.6193C39.4487 14.786 39.015 14.8693 38.4809 14.8693C37.7915 14.8693 37.1703 14.7083 36.6172 14.3864C36.068 14.0606 35.6324 13.5814 35.3104 12.9489C34.9922 12.3125 34.8331 11.5303 34.8331 10.6023C34.8331 9.67424 34.9903 8.87879 35.3047 8.21591C35.6229 7.55303 36.0585 7.04545 36.6116 6.69318C37.1646 6.33712 37.7915 6.15909 38.4922 6.15909C39.0339 6.15909 39.4714 6.25 39.8047 6.43182C40.1381 6.60985 40.3975 6.81818 40.5831 7.05682C40.7725 7.29545 40.9184 7.50568 41.0206 7.6875H41.1456V6.27273H42.8104V15.1932C42.8104 15.9432 42.6362 16.5587 42.2877 17.0398C41.9392 17.5208 41.4676 17.8769 40.8729 18.108C40.282 18.339 39.6153 18.4545 38.8729 18.4545ZM38.8559 13.4602C39.3445 13.4602 39.7574 13.3466 40.0945 13.1193C40.4354 12.8883 40.693 12.5587 40.8672 12.1307C41.0453 11.6989 41.1343 11.1818 41.1343 10.5795C41.1343 9.99242 41.0472 9.47538 40.8729 9.02841C40.6987 8.58144 40.443 8.23295 40.1059 7.98295C39.7687 7.72917 39.3521 7.60227 38.8559 7.60227C38.3445 7.60227 37.9184 7.73485 37.5775 8C37.2366 8.26136 36.979 8.61742 36.8047 9.06818C36.6343 9.51894 36.5491 10.0227 36.5491 10.5795C36.5491 11.1515 36.6362 11.6534 36.8104 12.0852C36.9847 12.517 37.2422 12.8542 37.5831 13.0966C37.9278 13.339 38.3521 13.4602 38.8559 13.4602ZM46.7877 9.81818V15H45.0888V6.27273H46.7195V7.69318H46.8275C47.0282 7.23106 47.3426 6.85985 47.7706 6.57955C48.2025 6.29924 48.746 6.15909 49.4013 6.15909C49.996 6.15909 50.5169 6.28409 50.9638 6.53409C51.4108 6.7803 51.7574 7.14773 52.0036 7.63636C52.2498 8.125 52.3729 8.72917 52.3729 9.44886V15H50.6741V9.65341C50.6741 9.02083 50.5093 8.52652 50.1797 8.17045C49.8502 7.81061 49.3975 7.63068 48.8218 7.63068C48.4278 7.63068 48.0775 7.71591 47.7706 7.88636C47.4676 8.05682 47.2271 8.30682 47.0491 8.63636C46.8748 8.96212 46.7877 9.35606 46.7877 9.81818ZM58.4127 15.1761C57.5528 15.1761 56.8123 14.9924 56.1911 14.625C55.5737 14.2538 55.0964 13.733 54.7593 13.0625C54.4259 12.3883 54.2593 11.5985 54.2593 10.6932C54.2593 9.79924 54.4259 9.01136 54.7593 8.32955C55.0964 7.64773 55.5661 7.11553 56.1684 6.73295C56.7744 6.35038 57.4828 6.15909 58.2934 6.15909C58.7858 6.15909 59.2631 6.24053 59.7252 6.40341C60.1873 6.56629 60.6021 6.82197 60.9695 7.17045C61.3369 7.51894 61.6267 7.97159 61.8388 8.52841C62.0509 9.08144 62.157 9.75379 62.157 10.5455V11.1477H55.2195V9.875H60.4922C60.4922 9.42803 60.4013 9.0322 60.2195 8.6875C60.0377 8.33902 59.782 8.06439 59.4525 7.86364C59.1267 7.66288 58.7441 7.5625 58.3047 7.5625C57.8275 7.5625 57.4108 7.67992 57.0547 7.91477C56.7025 8.14583 56.4297 8.44886 56.2366 8.82386C56.0472 9.19508 55.9525 9.59848 55.9525 10.0341V11.0284C55.9525 11.6117 56.0547 12.108 56.2593 12.517C56.4676 12.9261 56.7574 13.2386 57.1286 13.4545C57.4998 13.6667 57.9335 13.7727 58.4297 13.7727C58.7517 13.7727 59.0453 13.7273 59.3104 13.6364C59.5756 13.5417 59.8047 13.4015 59.9979 13.2159C60.1911 13.0303 60.3388 12.8011 60.4411 12.5284L62.0491 12.8182C61.9203 13.2917 61.6892 13.7064 61.3559 14.0625C61.0263 14.4148 60.6116 14.6894 60.1116 14.8864C59.6153 15.0795 59.0491 15.1761 58.4127 15.1761ZM67.309 15.1705C66.6044 15.1705 65.9757 14.9905 65.4226 14.6307C64.8734 14.267 64.4416 13.75 64.1272 13.0795C63.8166 12.4053 63.6613 11.5966 63.6613 10.6534C63.6613 9.71023 63.8185 8.90341 64.1329 8.23295C64.451 7.5625 64.8866 7.04924 65.4397 6.69318C65.9927 6.33712 66.6196 6.15909 67.3204 6.15909C67.862 6.15909 68.2976 6.25 68.6272 6.43182C68.9605 6.60985 69.2181 6.81818 69.3999 7.05682C69.5855 7.29545 69.7294 7.50568 69.8317 7.6875H69.934V3.36364H71.6329V15H69.9738V13.642H69.8317C69.7294 13.8277 69.5817 14.0398 69.3885 14.2784C69.1991 14.517 68.9378 14.7254 68.6044 14.9034C68.2711 15.0814 67.8393 15.1705 67.309 15.1705ZM67.684 13.7216C68.1726 13.7216 68.5855 13.5928 68.9226 13.3352C69.2635 13.0739 69.5211 12.7121 69.6954 12.25C69.8734 11.7879 69.9624 11.25 69.9624 10.6364C69.9624 10.0303 69.8753 9.5 69.701 9.04545C69.5268 8.59091 69.2711 8.23674 68.934 7.98295C68.5969 7.72917 68.1802 7.60227 67.684 7.60227C67.1726 7.60227 66.7465 7.73485 66.4056 8C66.0647 8.26515 65.8071 8.62689 65.6329 9.08523C65.4624 9.54356 65.3772 10.0606 65.3772 10.6364C65.3772 11.2197 65.4643 11.7443 65.6385 12.2102C65.8128 12.6761 66.0704 13.0455 66.4113 13.3182C66.756 13.5871 67.1802 13.7216 67.684 13.7216ZM78.4283 15V3.36364H80.1272V7.6875H80.2294C80.3279 7.50568 80.47 7.29545 80.6556 7.05682C80.8412 6.81818 81.0988 6.60985 81.4283 6.43182C81.7579 6.25 82.1935 6.15909 82.7351 6.15909C83.4397 6.15909 84.0685 6.33712 84.6215 6.69318C85.1745 7.04924 85.6082 7.5625 85.9226 8.23295C86.2408 8.90341 86.3999 9.71023 86.3999 10.6534C86.3999 11.5966 86.2427 12.4053 85.9283 13.0795C85.6139 13.75 85.1821 14.267 84.6329 14.6307C84.0836 14.9905 83.4567 15.1705 82.7522 15.1705C82.2219 15.1705 81.7882 15.0814 81.451 14.9034C81.1177 14.7254 80.8563 14.517 80.6669 14.2784C80.4776 14.0398 80.3317 13.8277 80.2294 13.642H80.0874V15H78.4283ZM80.0931 10.6364C80.0931 11.25 80.1821 11.7879 80.3601 12.25C80.5382 12.7121 80.7957 13.0739 81.1329 13.3352C81.47 13.5928 81.8829 13.7216 82.3715 13.7216C82.8791 13.7216 83.3033 13.5871 83.6442 13.3182C83.9851 13.0455 84.2427 12.6761 84.4169 12.2102C84.595 11.7443 84.684 11.2197 84.684 10.6364C84.684 10.0606 84.5969 9.54356 84.4226 9.08523C84.2522 8.62689 83.9946 8.26515 83.6499 8C83.309 7.73485 82.8829 7.60227 82.3715 7.60227C81.8791 7.60227 81.4624 7.72917 81.1215 7.98295C80.7844 8.23674 80.5287 8.59091 80.3544 9.04545C80.1802 9.5 80.0931 10.0303 80.0931 10.6364ZM89.0846 18.2727C88.8308 18.2727 88.5997 18.2519 88.3914 18.2102C88.183 18.1723 88.0277 18.1307 87.9255 18.0852L88.3346 16.6932C88.6452 16.7765 88.9217 16.8125 89.1641 16.8011C89.4065 16.7898 89.6205 16.6989 89.8062 16.5284C89.9955 16.358 90.1622 16.0795 90.3062 15.6932L90.5164 15.1136L87.3232 6.27273H89.1414L91.3516 13.0455H91.4425L93.6527 6.27273H95.4766L91.88 16.1648C91.7133 16.6193 91.5012 17.0038 91.2437 17.3182C90.9861 17.6364 90.6793 17.875 90.3232 18.0341C89.9671 18.1932 89.5543 18.2727 89.0846 18.2727Z" fill="black"/>
<path d="M46.0889 40.8845V58.2142C46.0889 58.8867 46.4821 59.5075 47.1205 59.8438L58.9239 66.0554C60.3001 66.7797 62.0199 65.8744 62.0199 64.4259V47.0962C62.0199 46.4236 61.6267 45.8028 60.9882 45.4666L49.1849 39.2549C47.8087 38.5306 46.0889 39.436 46.0889 40.8845Z" fill="#3399FF"/>
<path d="M1.5708 80.4083H7.04128L13.8833 88.9947L13.7984 80.4083H17.05V91.7036H11.5287L4.78827 83.2021L4.87319 91.7036H1.5708V80.4083Z" fill="#13548A"/>
<path d="M25.2279 87.792L18.7754 80.4083H23.1613L26.9713 85.0822L30.7482 80.4083H35.0492L28.6816 87.792V91.7036H25.2269V87.792H25.2279Z" fill="#13548A"/>
<path d="M36.7847 80.4083H42.2376L46.3531 87.9102L50.4511 80.4083H55.8698V91.7036H52.5167L52.6865 82.9824L47.6739 91.7036H44.9299L40.0021 82.9824L40.1037 91.7036H36.7847V80.4083Z" fill="#13548A"/>
<path d="M58.416 80.4083H63.8865L70.7285 88.9947L70.6436 80.4083H73.8952V91.7036H68.374L61.6335 83.2021L61.7184 91.7036H58.416V80.4083Z" fill="#13548A"/>
<path d="M81.9286 80.4083H86.5352L92.7163 91.7036H88.9571L87.8394 89.6887H80.5571L79.4735 91.7036H75.5786L81.9296 80.4083H81.9286ZM86.6367 87.3342L84.1982 82.8292L81.7929 87.3342H86.6367Z" fill="#13548A"/>
<path d="M0.571777 98.3513H6.83589V99.3382H0.571777V98.3513ZM3.14009 99.2172H4.27831V104.878H3.14009V99.2172Z" fill="#13548A"/>
<path d="M10.8467 102.098V103.891H15.4299V104.878H9.69873V98.3513H15.4191V99.3382H10.8467V101.151H14.5933V102.098H10.8467Z" fill="#13548A"/>
<path d="M25.1637 102.592C25.0963 103.096 24.9186 103.527 24.6297 103.886C24.3407 104.245 23.9571 104.521 23.4768 104.712C22.9966 104.903 22.4372 104.999 21.7998 104.999C21.2492 104.999 20.7435 104.925 20.2838 104.777C19.824 104.63 19.4238 104.413 19.085 104.127C18.7463 103.842 18.4837 103.49 18.2992 103.07C18.1147 102.65 18.022 102.169 18.022 101.624C18.022 101.08 18.1137 100.591 18.2992 100.174C18.4837 99.758 18.7453 99.4036 19.085 99.1118C19.4238 98.8199 19.824 98.6003 20.2838 98.4519C20.7435 98.3045 21.2492 98.2303 21.7998 98.2303C22.444 98.2303 23.0063 98.3279 23.4866 98.5222C23.9669 98.7174 24.3515 98.9956 24.6395 99.3578C24.9284 99.7199 25.1031 100.157 25.1637 100.667H24.0557C23.962 100.364 23.8136 100.107 23.6125 99.8966C23.4114 99.6848 23.1576 99.5227 22.8521 99.4085C22.5465 99.2943 22.1951 99.2377 21.7998 99.2377C21.3029 99.2377 20.8568 99.3304 20.4605 99.5149C20.0641 99.6994 19.7537 99.9679 19.5292 100.32C19.3037 100.673 19.1914 101.108 19.1914 101.624C19.1914 102.141 19.3037 102.566 19.5292 102.919C19.7537 103.271 20.0641 103.538 20.4605 103.719C20.8568 103.901 21.3029 103.992 21.7998 103.992C22.1961 103.992 22.5456 103.936 22.8472 103.826C23.1498 103.715 23.4017 103.553 23.6028 103.343C23.8038 103.131 23.9513 102.881 24.0459 102.592H25.1637Z" fill="#13548A"/>
<path d="M28.3599 98.3513H29.5078V104.878H28.3599V98.3513ZM29.377 101.122H34.171V102.099H29.377V101.122ZM34.0109 98.3513H35.1492V104.878H34.0109V98.3513Z" fill="#13548A"/>
<path d="M44.6954 103.69L44.3527 103.821V98.3523H45.4909V104.879H44.3527L39.4582 99.5715L39.8106 99.4407V104.88H38.6626V98.3533H39.8106L44.6954 103.691V103.69Z" fill="#13548A"/>
<path d="M52.5171 104.999C51.7517 104.999 51.085 104.861 50.5178 104.586C49.9507 104.311 49.5104 103.921 49.1981 103.418C48.8857 102.914 48.7295 102.314 48.7295 101.615C48.7295 100.916 48.8857 100.313 49.1981 99.8068C49.5104 99.3002 49.9497 98.9107 50.5178 98.6383C51.085 98.366 51.7517 98.2303 52.5171 98.2303C53.2824 98.2303 53.9569 98.366 54.5211 98.6383C55.0854 98.9107 55.5237 99.3002 55.836 99.8068C56.1484 100.313 56.3046 100.917 56.3046 101.615C56.3046 102.313 56.1484 102.914 55.836 103.418C55.5237 103.921 55.0854 104.311 54.5211 104.586C53.9569 104.861 53.2892 104.999 52.5171 104.999ZM52.5171 103.992C53.0276 103.992 53.4776 103.905 53.8661 103.73C54.2556 103.555 54.5631 103.292 54.7876 102.939C55.0122 102.587 55.1254 102.146 55.1254 101.615C55.1254 101.084 55.0131 100.653 54.7876 100.301C54.5621 99.9484 54.2556 99.6828 53.8661 99.5052C53.4766 99.3275 53.0266 99.2377 52.5171 99.2377C52.0075 99.2377 51.5633 99.3265 51.167 99.5052C50.7707 99.6828 50.4583 99.9484 50.2299 100.301C50.0014 100.653 49.8872 101.091 49.8872 101.615C49.8872 102.138 50.0014 102.587 50.2299 102.939C50.4583 103.292 50.7707 103.555 51.167 103.73C51.5633 103.905 52.0133 103.992 52.5171 103.992Z" fill="#13548A"/>
<path d="M60.6709 98.3513V103.891H64.7396V104.878H59.5229V98.3513H60.6709Z" fill="#13548A"/>
<path d="M70.9462 104.999C70.1809 104.999 69.5142 104.861 68.947 104.586C68.3799 104.311 67.9396 103.921 67.6272 103.418C67.3149 102.914 67.1587 102.314 67.1587 101.615C67.1587 100.916 67.3149 100.313 67.6272 99.8068C67.9396 99.3002 68.3789 98.9107 68.947 98.6383C69.5142 98.366 70.1809 98.2303 70.9462 98.2303C71.7116 98.2303 72.3861 98.366 72.9503 98.6383C73.5146 98.9107 73.9529 99.3002 74.2652 99.8068C74.5776 100.313 74.7338 100.917 74.7338 101.615C74.7338 102.313 74.5776 102.914 74.2652 103.418C73.9529 103.921 73.5146 104.311 72.9503 104.586C72.3861 104.861 71.7184 104.999 70.9462 104.999ZM70.9462 103.992C71.4568 103.992 71.9068 103.905 72.2953 103.73C72.6848 103.555 72.9923 103.292 73.2168 102.939C73.4413 102.587 73.5546 102.146 73.5546 101.615C73.5546 101.084 73.4423 100.653 73.2168 100.301C72.9913 99.9484 72.6848 99.6828 72.2953 99.5052C71.9058 99.3275 71.4558 99.2377 70.9462 99.2377C70.4367 99.2377 69.9925 99.3265 69.5962 99.5052C69.1999 99.6828 68.8875 99.9484 68.6591 100.301C68.4306 100.653 68.3164 101.091 68.3164 101.615C68.3164 102.138 68.4306 102.587 68.6591 102.939C68.8875 103.292 69.1999 103.555 69.5962 103.73C69.9925 103.905 70.4425 103.992 70.9462 103.992Z" fill="#13548A"/>
<path d="M81.3369 104.999C80.7795 104.999 80.2758 104.925 79.8258 104.777C79.3758 104.63 78.9912 104.413 78.6729 104.127C78.3537 103.842 78.1087 103.491 77.9379 103.075C77.7661 102.659 77.6812 102.189 77.6812 101.665C77.6812 101.142 77.7719 100.658 77.9525 100.235C78.1331 99.8126 78.3918 99.4514 78.7286 99.1527C79.0644 98.854 79.4636 98.6256 79.9273 98.4675C80.391 98.3103 80.9006 98.2312 81.458 98.2312C82.1091 98.2312 82.6733 98.3318 83.1497 98.5338C83.6261 98.7349 84.0058 99.0161 84.2879 99.3743C84.57 99.7335 84.7311 100.158 84.7711 100.648H83.7139C83.627 100.359 83.4835 100.111 83.2863 99.9034C83.0882 99.6955 82.8363 99.5325 82.5308 99.4153C82.2252 99.2982 81.868 99.2386 81.458 99.2386C80.9211 99.2386 80.4564 99.3411 80.063 99.5461C79.6706 99.7511 79.3699 100.036 79.162 100.402C78.9541 100.768 78.8496 101.19 78.8496 101.666C78.8496 102.143 78.9424 102.555 79.1269 102.9C79.3114 103.246 79.5915 103.514 79.9683 103.706C80.3442 103.897 80.8108 103.993 81.3682 103.993C81.7977 103.993 82.1755 103.927 82.5015 103.796C82.8275 103.666 83.097 103.483 83.3127 103.248C83.5275 103.013 83.6788 102.741 83.7657 102.432L84.2791 102.311C84.1854 103.177 83.8779 103.841 83.3576 104.305C82.8373 104.769 82.1638 105 81.3379 105L81.3369 104.999ZM84.0068 104.878C84.0068 104.663 84.0165 104.42 84.037 104.148C84.0575 103.875 84.0819 103.597 84.1122 103.312C84.1424 103.027 84.1708 102.77 84.1981 102.542H81.499V101.716H85.0239V104.879H84.0068V104.878Z" fill="#13548A"/>
<path d="M93.7152 98.3513L91.0561 102.753V104.878H89.9081V102.753L87.249 98.3513H88.5678L90.814 102.198H90.1893L92.4052 98.3513H93.7142H93.7152Z" fill="#13548A"/>
<path d="M32.4341 40.8845V58.2142C32.4341 58.8867 32.7711 59.5075 33.3184 59.8438L43.4355 66.0554C44.6152 66.7797 46.0893 65.8744 46.0893 64.4259V47.0962C46.0893 46.4236 45.7522 45.8028 45.205 45.4666L35.0878 39.2549C33.9082 38.5306 32.4341 39.436 32.4341 40.8845Z" fill="#13548A"/>
</svg>
