<svg width="36" height="36" viewBox="0 0 36 36" fill="none" xmlns="http://www.w3.org/2000/svg">
<path d="M0.768379 17.7846C0.767535 20.8093 1.56404 23.7627 3.07857 26.3658L0.623535 35.2601L9.79679 32.8735C12.334 34.2439 15.1767 34.9621 18.0655 34.9623H18.0731C27.6096 34.9623 35.3725 27.2623 35.3766 17.7981C35.3784 13.212 33.5801 8.89954 30.3128 5.65508C27.0461 2.41089 22.7015 0.623309 18.0724 0.621216C8.53482 0.621216 0.772457 8.32075 0.76852 17.7846" fill="url(#paint0_linear_412_621)"/>
<path d="M0.150469 17.779C0.149484 20.9125 0.974531 23.9715 2.54306 26.6679L0 35.881L9.50217 33.4088C12.1203 34.8253 15.0681 35.572 18.0676 35.5732H18.0754C27.954 35.5732 35.9958 27.5962 36 17.7932C36.0017 13.0423 34.1387 8.57484 30.7547 5.21414C27.3703 1.85386 22.8703 0.00195349 18.0754 0C8.19506 0 0.154406 7.97581 0.150469 17.779ZM5.80936 26.2035L5.45456 25.6447C3.96309 23.2916 3.17587 20.5723 3.177 17.7801C3.18009 9.63195 9.86316 3.00279 18.081 3.00279C22.0607 3.00447 25.8007 4.54381 28.6138 7.33674C31.4267 10.13 32.9746 13.843 32.9736 17.7921C32.97 25.9402 26.2867 32.5702 18.0754 32.5702H18.0695C15.3958 32.5688 12.7735 31.8564 10.4867 30.51L9.94247 30.1898L4.30369 31.6567L5.80936 26.2035Z" fill="url(#paint1_linear_412_621)"/>
<path d="M13.5953 10.3463C13.2597 9.6063 12.9066 9.59137 12.5875 9.57839C12.3263 9.56723 12.0276 9.56807 11.7292 9.56807C11.4305 9.56807 10.9452 9.67956 10.535 10.124C10.1243 10.5688 8.96729 11.6438 8.96729 13.8302C8.96729 16.0165 10.5722 18.1297 10.796 18.4264C11.02 18.7227 13.8944 23.353 18.4467 25.1343C22.2301 26.6146 23 26.3202 23.8211 26.246C24.6423 26.172 26.471 25.1713 26.8441 24.1336C27.2175 23.096 27.2175 22.2066 27.1055 22.0207C26.9936 21.8356 26.6949 21.7243 26.247 21.5022C25.7991 21.2801 23.5971 20.2048 23.1866 20.0565C22.776 19.9083 22.4774 19.8343 22.1787 20.2793C21.88 20.7236 21.0224 21.7243 20.7609 22.0207C20.4998 22.3178 20.2384 22.3548 19.7906 22.1325C19.3425 21.9095 17.9001 21.4408 16.1888 19.927C14.8574 18.749 13.9585 17.2944 13.6972 16.8494C13.4359 16.4051 13.6692 16.1643 13.8938 15.9429C14.095 15.7437 14.3418 15.4239 14.566 15.1645C14.7893 14.905 14.8638 14.7198 15.0132 14.4235C15.1627 14.1268 15.0878 13.8673 14.9761 13.645C14.8638 13.4227 13.9935 11.2249 13.5953 10.3463Z" fill="white"/>
<defs>
<linearGradient id="paint0_linear_412_621" x1="1738.28" y1="3464.51" x2="1738.28" y2="0.621216" gradientUnits="userSpaceOnUse">
<stop stop-color="#1FAF38"/>
<stop offset="1" stop-color="#60D669"/>
</linearGradient>
<linearGradient id="paint1_linear_412_621" x1="1800" y1="3588.1" x2="1800" y2="0" gradientUnits="userSpaceOnUse">
<stop stop-color="#F9F9F9"/>
<stop offset="1" stop-color="white"/>
</linearGradient>
</defs>
</svg>
